<svg xmlns="http://www.w3.org/2000/svg" viewBox="0 0 410 404"><path fill="#41D1FF" d="M399.641 59.525 215.643 388.545c-3.816 6.826-13.679 6.868-17.548.074L.828 59.473c-4.216-7.403 2.58-16.162 10.752-13.963L195.834 92.09c1.422.382 2.906.382 4.328 0L399.641 45.56c8.172-2.199 14.968 6.56 10.752 13.964z"/><path fill="#FFBD19" d="M292.965 1.474 156.801 28.262c-2.249.442-3.907 2.39-3.993 4.686l-9.199 245.9c-.124 3.311 3.153 5.672 6.27 4.516l37.749-14.014c3.556-1.32 7.275 1.322 7.048 5.009l-5.29 85.894c-.2 3.248 2.777 5.633 5.874 4.709l20.291-6.058c3.1-.926 6.075 1.463 5.874 4.713l-8.41 136.581c-.313 5.084 6.483 7.222 8.774 2.762l1.534-2.986 84.863-173.85c1.657-3.394-.824-7.283-4.555-7.134l-38.493 1.536c-3.586.143-6.249-3.285-5.148-6.627l30.791-93.564c1.101-3.344-1.563-6.773-5.151-6.628z"/></svg>